<svg xmlns="http://www.w3.org/2000/svg" width="1180" height="610" viewBox="0 0 1180 610">
<defs>
  <!-- Font and Styles -->
  <style>
    @import url('https://fonts.googleapis.com/css2?family=Fira+Code:wght@400;500;700&amp;display=swap');
    
    .ascii  { font-family: 'Fira Code', monospace; font-size: 7.19px; fill: url(#asciiGrad); font-weight: 500; letter-spacing: -0.2px; }
    .key    { font-family: 'Fira Code', monospace; font-size: 13.5px; fill: #0EA5E9; font-weight: bold; letter-spacing: 0.5px; }
    .value  { font-family: 'Fira Code', monospace; font-size: 13.5px; fill: #1E293B; }
    .cc     { font-family: 'Fira Code', monospace; font-size: 13.5px; fill: #94A3B8; }
    .head   { font-family: 'Fira Code', monospace; font-size: 15px; fill: #6366F1; font-weight: bold; letter-spacing: 1px; }
    .accent { font-family: 'Fira Code', monospace; font-size: 13.5px; fill: #10B981; font-weight: bold; letter-spacing: 0.5px; }
    text, tspan { white-space: pre; }
    
    .term-label { font-family: 'Fira Code', monospace; font-size: 12px; fill: #64748B; letter-spacing: 0.5px; }
    .scan-label { font-family: 'Fira Code', monospace; font-size: 10px; fill: #10B981; letter-spacing: 1.5px; font-weight: bold; }
    .panel-title { font-family: 'Fira Code', monospace; font-size: 11px; fill: #0284C7; letter-spacing: 2px; opacity: 0.8; font-weight: bold; }
    .cursor-blink { fill: #0EA5E9; }
  </style>

  <!-- Gradients -->
  <linearGradient id="asciiGrad" x1="0%" y1="0%" x2="100%" y2="100%">
    <stop offset="0%" stop-color="#0EA5E9">
      <animate attributeName="stop-color" values="#0EA5E9;#6366F1;#3B82F6;#0EA5E9" dur="9s" repeatCount="indefinite"/>
    </stop>
    <stop offset="100%" stop-color="#6366F1">
      <animate attributeName="stop-color" values="#6366F1;#3B82F6;#0EA5E9;#6366F1" dur="9s" repeatCount="indefinite"/>
    </stop>
  </linearGradient>
  
  <linearGradient id="borderGrad" x1="0%" y1="0%" x2="100%" y2="100%">
    <stop offset="0%" stop-color="#6366F1"/>
    <stop offset="50%" stop-color="#0EA5E9"/>
    <stop offset="100%" stop-color="#10B981"/>
  </linearGradient>
  
  <radialGradient id="bgGlow" cx="50%" cy="50%" r="70%">
    <stop offset="0%" stop-color="#FAFAFA"/>
    <stop offset="100%" stop-color="#E2E8F0"/>
  </radialGradient>
  
  <linearGradient id="scanGrad" x1="0%" y1="0%" x2="0%" y2="100%">
    <stop offset="0%" stop-color="#0EA5E9" stop-opacity="0"/>
    <stop offset="45%" stop-color="#0EA5E9" stop-opacity="0.02"/>
    <stop offset="50%" stop-color="#38BDF8" stop-opacity="0.4"/>
    <stop offset="55%" stop-color="#0EA5E9" stop-opacity="0.02"/>
    <stop offset="100%" stop-color="#6366F1" stop-opacity="0"/>
  </linearGradient>
  
  <!-- Patterns and Filters -->
  <pattern id="scanlines" width="4" height="4" patternUnits="userSpaceOnUse">
    <rect width="4" height="1" fill="#0EA5E9" opacity="0.02"/>
  </pattern>

  <mask id="revealMask" maskUnits="userSpaceOnUse" x="0" y="0" width="1180" height="620">
    <rect x="0" y="0" width="1180" height="0" fill="#fff">
      <animate attributeName="height" from="0" to="560" dur="2.6s" begin="0.2s" fill="freeze" calcMode="spline" keySplines="0.25 0.1 0.25 1"/>
    </rect>
  </mask>

  <!-- Clip Paths -->
  <clipPath id="lc0"><rect x="500" y="35.00" width="0" height="50"><animate attributeName="width" from="0" to="690" dur="0.38s" begin="0.75s" fill="freeze"/></rect></clipPath><clipPath id="lc1"><rect x="500" y="60.00" width="0" height="50"><animate attributeName="width" from="0" to="690" dur="0.38s" begin="0.86s" fill="freeze"/></rect></clipPath><clipPath id="lc2"><rect x="500" y="80.00" width="0" height="50"><animate attributeName="width" from="0" to="690" dur="0.38s" begin="0.98s" fill="freeze"/></rect></clipPath><clipPath id="lc3"><rect x="500" y="100.00" width="0" height="50"><animate attributeName="width" from="0" to="690" dur="0.38s" begin="1.09s" fill="freeze"/></rect></clipPath><clipPath id="lc4"><rect x="500" y="120.00" width="0" height="50"><animate attributeName="width" from="0" to="690" dur="0.38s" begin="1.21s" fill="freeze"/></rect></clipPath><clipPath id="lc5"><rect x="500" y="140.00" width="0" height="50"><animate attributeName="width" from="0" to="690" dur="0.38s" begin="1.32s" fill="freeze"/></rect></clipPath><clipPath id="lc6"><rect x="500" y="160.00" width="0" height="50"><animate attributeName="width" from="0" to="690" dur="0.38s" begin="1.44s" fill="freeze"/></rect></clipPath><clipPath id="lc7"><rect x="500" y="180.00" width="0" height="50"><animate attributeName="width" from="0" to="690" dur="0.38s" begin="1.55s" fill="freeze"/></rect></clipPath><clipPath id="lc8"><rect x="500" y="214.00" width="0" height="50"><animate attributeName="width" from="0" to="690" dur="0.38s" begin="1.67s" fill="freeze"/></rect></clipPath><clipPath id="lc9"><rect x="500" y="234.00" width="0" height="50"><animate attributeName="width" from="0" to="690" dur="0.38s" begin="1.78s" fill="freeze"/></rect></clipPath><clipPath id="lc10"><rect x="500" y="254.00" width="0" height="50"><animate attributeName="width" from="0" to="690" dur="0.38s" begin="1.90s" fill="freeze"/></rect></clipPath><clipPath id="lc11"><rect x="500" y="274.00" width="0" height="50"><animate attributeName="width" from="0" to="690" dur="0.38s" begin="2.02s" fill="freeze"/></rect></clipPath><clipPath id="lc12"><rect x="500" y="294.00" width="0" height="50"><animate attributeName="width" from="0" to="690" dur="0.38s" begin="2.13s" fill="freeze"/></rect></clipPath><clipPath id="lc13"><rect x="500" y="351.00" width="0" height="50"><animate attributeName="width" from="0" to="690" dur="0.38s" begin="2.25s" fill="freeze"/></rect></clipPath><clipPath id="lc14"><rect x="500" y="397.00" width="0" height="50"><animate attributeName="width" from="0" to="690" dur="0.38s" begin="2.36s" fill="freeze"/></rect></clipPath><clipPath id="lc15"><rect x="500" y="419.00" width="0" height="50"><animate attributeName="width" from="0" to="690" dur="0.38s" begin="2.48s" fill="freeze"/></rect></clipPath><clipPath id="lc16"><rect x="500" y="441.00" width="0" height="50"><animate attributeName="width" from="0" to="690" dur="0.38s" begin="2.59s" fill="freeze"/></rect></clipPath><clipPath id="lc17"><rect x="500" y="463.00" width="0" height="50"><animate attributeName="width" from="0" to="690" dur="0.38s" begin="2.71s" fill="freeze"/></rect></clipPath><clipPath id="lc18"><rect x="500" y="485.00" width="0" height="50"><animate attributeName="width" from="0" to="690" dur="0.38s" begin="2.82s" fill="freeze"/></rect></clipPath><clipPath id="lc19"><rect x="500" y="509.00" width="0" height="50"><animate attributeName="width" from="0" to="690" dur="0.38s" begin="2.94s" fill="freeze"/></rect></clipPath><clipPath id="lc20"><rect x="500" y="509.00" width="0" height="50"><animate attributeName="width" from="0" to="690" dur="0.38s" begin="3.05s" fill="freeze"/></rect></clipPath><clipPath id="lc21"><rect x="500" y="509.00" width="0" height="50"><animate attributeName="width" from="0" to="690" dur="0.38s" begin="3.17s" fill="freeze"/></rect></clipPath>
</defs>

<!-- Background -->
<rect width="1180" height="610" rx="18" fill="#FAFAFA"/>
<rect width="1180" height="610" rx="18" fill="url(#scanlines)"/>

<!-- Grid Overlay -->
<g stroke="#0EA5E9" stroke-width="0.5" opacity="0.05">
  <path d="M 0,100 L 1180,100 M 0,200 L 1180,200 M 0,300 L 1180,300 M 0,400 L 1180,400 M 0,500 L 1180,500"/>
  <path d="M 200,0 L 200,610 M 400,0 L 400,610 M 600,0 L 600,610 M 800,0 L 800,610 M 1000,0 L 1000,610"/>
</g>

<!-- Title Bar -->
<g id="titlebar">
  <!-- Console Controls -->
  <circle cx="24" cy="20" r="5" fill="#EF4444"><animate attributeName="opacity" values="1;0.55;1" dur="4s" repeatCount="indefinite"/></circle>
  <circle cx="42" cy="20" r="5" fill="#FBBF24"><animate attributeName="opacity" values="1;0.55;1" dur="4s" begin="0.3s" repeatCount="indefinite"/></circle>
  <circle cx="60" cy="20" r="5" fill="#34D399"><animate attributeName="opacity" values="1;0.55;1" dur="4s" begin="0.6s" repeatCount="indefinite"/></circle>
  <text x="590" y="23" text-anchor="middle" class="term-label">Sachin ~ ./profile.sh --live</text>
  <!-- Online status indicator -->
  <circle cx="1122" cy="20" r="4" fill="#10B981">
    <animate attributeName="opacity" values="1;0.35;1" dur="1.5s" repeatCount="indefinite"/>
  </circle>
  <text x="1132" y="24" class="scan-label" fill="#10B981">ONLINE</text>
</g>

<!-- Main content panel -->
<g transform="translate(0,38)">
  
  <!-- Left Panel: VISUAL.MAP -->
  <g id="left-panel">
    <rect x="14" y="16" width="458" height="530" rx="12" fill="#FAFAFA" fill-opacity="0.6" stroke="#CBD5E1" stroke-width="1.5"/>
    
    <!-- Title gap trick -->
    <rect x="30" y="7" width="95" height="15" fill="#FAFAFA"/>
    <text x="36" y="20" class="panel-title">VISUAL.MAP</text>
    
    <!-- Hologram ASCII Art -->
    <g mask="url(#revealMask)">
      <text x="38.08" y="0" class="ascii">
        <tspan x="38.08" y="88.57" xml:space="preserve">                                                                                               </tspan>
<tspan x="38.08" y="95.91" xml:space="preserve">                                                                                               </tspan>
<tspan x="38.08" y="103.25" xml:space="preserve">                                                                                               </tspan>
<tspan x="38.08" y="110.59" xml:space="preserve">                                        .:-=*#***++++**++=-.                                   </tspan>
<tspan x="38.08" y="117.93" xml:space="preserve">                                    -++*#%%%@%%%%@@@@@@@@@@%+.                                 </tspan>
<tspan x="38.08" y="125.27" xml:space="preserve">                                 .+#%%#%@@%%###%#%%%%%%%%%%%@%+=:                              </tspan>
<tspan x="38.08" y="132.61" xml:space="preserve">                                -#@@%###%%##%%%%@@@@@%@%@@@%%@@@%#=                            </tspan>
<tspan x="38.08" y="139.95" xml:space="preserve">                               =#@@%%%%%%%%@@@@%%%##%%%%%%%%@%%%%@@%+                          </tspan>
<tspan x="38.08" y="147.29" xml:space="preserve">                               *@%#%%#%##%%%%%%%%%%%%%@@%%%%@@@@@%%@@#:                        </tspan>
<tspan x="38.08" y="154.63" xml:space="preserve">                               %%%%%%%%%%%%%%@@@%%%@%%%%%%@@@@@@@@@%%@%+                       </tspan>
<tspan x="38.08" y="161.97" xml:space="preserve">                               #%%#%%@@%%%%%%%%%%%%%%%%@@@@@@@@@@@@@@%@@%-                     </tspan>
<tspan x="38.08" y="169.31" xml:space="preserve">                               -%%%%%%%%@@@@@@%@@@@@@@@@@@@@@@@@@@@@@@%%@%-                    </tspan>
<tspan x="38.08" y="176.65" xml:space="preserve">                               *@%@@@%%@%%%%%%%%%@@@%%@@@@@@@@@@@@@%%@@@%%@+                   </tspan>
<tspan x="38.08" y="183.99" xml:space="preserve">                               %#*@@###%%%%%%%%%@@@%%@@@%@@@@@@@@@@@@@%%%%%@+                  </tspan>
<tspan x="38.08" y="191.33" xml:space="preserve">                              .%%%%===***%@@@@%@@@@@@%%%%%%%@@%%%@@%%%%%@@%%%                  </tspan>
<tspan x="38.08" y="198.67" xml:space="preserve">                               #@@= :.:==+*%@@@@%%%%%%%%%%%%%%%%@@%%%%@@@%%%%                  </tspan>
<tspan x="38.08" y="206.01" xml:space="preserve">                               +%#       .:=***%@@@@%%@@@@@%%%@%%%%%%%@%%%%@-                  </tspan>
<tspan x="38.08" y="213.35" xml:space="preserve">                               =%-.***+=--=---:-++*#%%%##%%%%@@@@%@@@@%%%%@=                   </tspan>
<tspan x="38.08" y="220.69" xml:space="preserve">                               -@+*++#%%%@@%%#**++++******#%%%%%%%%@@@@%@%=                    </tspan>
<tspan x="38.08" y="228.03" xml:space="preserve">                              .*#. -+***#%%%%@@@@@@@@@@@%%%%%%@%++#@%%%@*:                     </tspan>
<tspan x="38.08" y="235.37" xml:space="preserve">                              *@: *@%-%@%+%%%%#%%%%%%%%%%#***==##--#@%@+                       </tspan>
<tspan x="38.08" y="242.71" xml:space="preserve">                              -%  -:+=*%*+%@@%#%%@%@@%@*#@@*#%*:#*+##%%.                       </tspan>
<tspan x="38.08" y="250.05" xml:space="preserve">                              :%:    -+*%@%#+@*:=#@%@@%##%*-+%%**#+*#%*                        </tspan>
<tspan x="38.08" y="257.39" xml:space="preserve">                               +=.  .:-==:  *+  :+@*+#%@@%%%#+=-*-.=@#.                        </tspan>
<tspan x="38.08" y="264.73" xml:space="preserve">                               .=+:       .*%   -#%#--=*###*++:-+- *%                          </tspan>
<tspan x="38.08" y="272.07" xml:space="preserve">                                 :+=::::--=+:    +@@#=-:-====--*+- %=                          </tspan>
<tspan x="38.08" y="279.41" xml:space="preserve">                                 ..=: ..:+*  .   .:=%#*++++++***+.=+                           </tspan>
<tspan x="38.08" y="286.75" xml:space="preserve">                                :-:.=-:-**=##**+=*==%%+=====+++*=:#-                           </tspan>
<tspan x="38.08" y="294.09" xml:space="preserve">                                 :-..++*-  =#%@@@@@#+*#*==-=++++=-=                            </tspan>
<tspan x="38.08" y="301.43" xml:space="preserve">                                  :-:=#+=:  :-###%#*++*#*+==+++==                              </tspan>
<tspan x="38.08" y="308.77" xml:space="preserve">                                  :=-:*@@##%%#*####**%###++=++==:                              </tspan>
<tspan x="38.08" y="316.11" xml:space="preserve">                                   ===######%%%%@@%%%%@%+++++===                               </tspan>
<tspan x="38.08" y="323.45" xml:space="preserve">                                   .++*+*#%@@@@@@%%%##%%*+++++#.                               </tspan>
<tspan x="38.08" y="330.79" xml:space="preserve">                                    :+---..-=*%%%%%%####*+*##%+                                </tspan>
<tspan x="38.08" y="338.13" xml:space="preserve">                                     -#+:.      .-=+++++*#%@@#.                                </tspan>
<tspan x="38.08" y="345.47" xml:space="preserve">                                    :.#%%%#***==+***+*#%@@@%%#                                 </tspan>
<tspan x="38.08" y="352.81" xml:space="preserve">                                    :-*%%%@@@@@@@@@@@@@@@%%%%*:                                </tspan>
<tspan x="38.08" y="360.15" xml:space="preserve">                                    +-*##%%%%@%%%%%%%%%%%%%%%%:                                </tspan>
<tspan x="38.08" y="367.49" xml:space="preserve">                                   +%-*####**#%%%%@%%%%###%%%%                                 </tspan>
<tspan x="38.08" y="374.83" xml:space="preserve">                                   :%++####*+*#%%@@%%####%%%@=                                 </tspan>
<tspan x="38.08" y="382.17" xml:space="preserve">                                    -%+####****#%%%%%#####%%=    .                             </tspan>
<tspan x="38.08" y="389.51" xml:space="preserve">                                     +@####****##%######%@#:.   .:                             </tspan>
<tspan x="38.08" y="396.85" xml:space="preserve">                                      =%%#+++**#######%%@+     .:.                             </tspan>
<tspan x="38.08" y="404.19" xml:space="preserve">                         ...           -*%*=++**####%%@@- .    ..                              </tspan>
<tspan x="38.08" y="411.53" xml:space="preserve">                                     ::  .+++*#*##%%@%*::#@#:               ...                </tspan>
<tspan x="38.08" y="418.87" xml:space="preserve">               ...                  +@%+=:.-=+#%#%@%#+=*@@%@%=                  ....           </tspan>
<tspan x="38.08" y="426.21" xml:space="preserve">            ..                    :#@#%@@@%%%*+#@@###@@@%%@%%@#-     .               ..:.      </tspan>
<tspan x="38.08" y="433.55" xml:space="preserve">                                :*@@%##@%%%%%#*****#%##%%@@@@%@@%+- ..                         </tspan>
<tspan x="38.08" y="440.89" xml:space="preserve">                              =%@%#*##**%%######*+**++%%@@%%#+++###+..                         </tspan>
<tspan x="38.08" y="448.23" xml:space="preserve">                              :=:.  :-: .=%@@@@@@@@@@@@@%%*+==---:::..                         </tspan>
<tspan x="38.08" y="455.57" xml:space="preserve">               ..                         .*%%%%%%%%@%@%##===----::::..                        </tspan>
<tspan x="38.08" y="462.91" xml:space="preserve">              :-                           :%@@@@@@@%@%***-------::::::..     .    :.          </tspan>
<tspan x="38.08" y="470.25" xml:space="preserve">             .-                            ::=%%@@@@%%#+*+-------:::-::::...  ..   :-.         </tspan>
<tspan x="38.08" y="477.59" xml:space="preserve">             -.                               #@%@@@%%#**+-------------::::::.::::.:=-.  ..</tspan>
      </text>
    </g>
    
    <!-- Prompt under portrait -->
    <text x="36" y="522" font-family="'Fira Code', monospace" font-size="12" fill="#10B981" font-weight="bold">&gt;_ rendering profile... done</text>
  </g>

  <!-- Right Panel - Top Box (SYSTEM.INFO & TECH STACK) -->
  <g id="right-panel-top">
    <rect x="486" y="16" width="680" height="344" rx="12" fill="#FAFAFA" fill-opacity="0.6" stroke="#CBD5E1" stroke-width="1.5"/>
    
    <!-- Title gap trick -->
    <rect x="506" y="7" width="105" height="15" fill="#FAFAFA"/>
    <text x="514" y="20" class="panel-title">SYSTEM.INFO</text>
    
    <!-- Horizontal divider and TECH STACK title gap -->
    <line x1="486" y1="205" x2="1166" y2="205" stroke="#CBD5E1" stroke-width="1.5"/>
    <rect x="506" y="196" width="100" height="15" fill="#FAFAFA"/>
    <text x="514" y="209" class="panel-title">TECH STACK</text>
    
    <!-- Username Header (lc0) -->
    <g clip-path="url(#lc0)">
      <text x="506" y="60" font-family="'Fira Code', monospace" font-size="22" fill="#0EA5E9" font-weight="bold">Sachin</text>
      <!-- Pill Badge -->
      <rect x="605" y="41" width="160" height="24" rx="12" fill="none" stroke="#6366F1" stroke-width="1.5"/>
      <text x="685" y="57" text-anchor="middle" font-family="'Fira Code', monospace" font-size="11.5" fill="#6366F1" font-weight="bold">Full-Stack Developer</text>
      
      <!-- Top right icons in system info (perfectly sized and aligned) -->
      <g transform="translate(1055,40) scale(0.85)"><path d="M6,18 L1,12 L6,6 M18,18 L23,12 L18,6 M14,3 L10,21" stroke="#94A3B8" stroke-width="2" fill="none" stroke-linecap="round" stroke-linejoin="round"/></g>
      <g transform="translate(1090,40) scale(0.85)"><path d="M2,4 h20 v16 h-20 Z M5,9 L9,12 L5,15 M11,15 h6" stroke="#94A3B8" stroke-width="2" fill="none" stroke-linecap="round" stroke-linejoin="round"/></g>
      <g transform="translate(1125,40) scale(1.275)"><path d="M8,0.2 A8,8 0 0,0 5.5,15.8 c0.4,0.1 0.5,-0.2 0.5,-0.4 v-1.4 c-2.2,0.5 -2.7,-1.1 -2.7,-1.1 c-0.4,-0.9 -0.9,-1.1 -0.9,-1.1 c-0.7,-0.5 0.1,-0.5 0.1,-0.5 c0.8,0.1 1.2,0.8 1.2,0.8 c0.7,1.2 1.9,0.9 2.3,0.7 c0.1,-0.5 0.3,-0.9 0.5,-1.1 c-1.8,-0.2 -3.6,-0.9 -3.6,-4 c0,-0.9 0.3,-1.6 0.8,-2.2 c-0.1,-0.2 -0.4,-1 0.1,-2.1 c0,0 0.7,-0.2 2.2,0.8 A7.5,7.5 0 0,1 10,4.6 c0.7,0 1.4,0.1 2,0.3 c1.5,-1 2.2,-0.8 2.2,-0.8 c0.4,1.1 0.2,1.9 0.1,2.1 c0.5,0.6 0.8,1.3 0.8,2.2 c0,3.1 -1.9,3.7 -3.7,3.9 c0.3,0.3 0.5,0.8 0.5,1.6 v2.4 c0,0.2 0.1,0.5 0.5,0.4 A8,8 0 0,0 8,0.2 Z" stroke="#94A3B8" stroke-width="1.33" fill="none" stroke-linecap="round" stroke-linejoin="round"/></g>
    </g>

    <!-- SYSTEM INFO LIST ITEMS -->
    <!-- lc1: Name -->
    <g transform="translate(506,72.5)"><path d="M8,3 A3,3 0 1,0 8,9 A3,3 0 1,0 8,3 Z M3,13 A5,5 0 0,1 13,13" stroke="#0EA5E9" stroke-width="1.5" fill="none" stroke-linecap="round" stroke-linejoin="round"/></g>
    <g clip-path="url(#lc1)">
      <text x="536" y="85"><tspan class="key">Name</tspan><tspan class="cc">: ....................... </tspan><tspan class="value" x="730">Sachin Sharma</tspan></text>
    </g>
    
    <!-- lc2: Role -->
    <g transform="translate(506,92.5)"><path d="M2,5 h12 v9 h-12 Z M5,5 v-2 h6 v2" stroke="#0EA5E9" stroke-width="1.5" fill="none" stroke-linecap="round" stroke-linejoin="round"/></g>
    <g clip-path="url(#lc2)">
      <text x="536" y="105"><tspan class="key">Role</tspan><tspan class="cc">: ....................... </tspan><tspan class="value" x="730">Full-Stack Dev · Tech All-Rounder</tspan></text>
    </g>
    
    <!-- lc3: Location -->
    <g transform="translate(506,112.5)"><path d="M8,1 A4,4 0 0,0 4,5 C4,9 8,15 8,15 C8,15 12,9 12,5 A4,4 0 0,0 8,1 Z M8,4 A1,1 0 1,1 8,6 A1,1 0 1,1 8,4 Z" stroke="#0EA5E9" stroke-width="1.5" fill="none" stroke-linecap="round" stroke-linejoin="round"/></g>
    <g clip-path="url(#lc3)">
      <text x="536" y="125"><tspan class="key">Location</tspan><tspan class="cc">: ................... </tspan><tspan class="value" x="730">India</tspan></text>
    </g>
    
    <!-- lc4: Education -->
    <g transform="translate(506,127.5)"><path d="M1,6 L8,2 L15,6 L8,10 Z M4,7.5 v4 A4,4 0 0,0 12,11.5 v-4 M15,6 v6" stroke="#0EA5E9" stroke-width="1.5" fill="none" stroke-linecap="round" stroke-linejoin="round"/></g>
    <g clip-path="url(#lc4)">
      <text x="536" y="145"><tspan class="key">Education</tspan><tspan class="cc">: .................. </tspan><tspan class="value" x="730">Self-Taught &amp; Lifelong Learner</tspan></text>
    </g>
    
    <!-- lc5: Status -->
    <g transform="translate(506,147.5)"><path d="M1,8 h2 L5,2 L9,14 L11,8 h4" stroke="#0EA5E9" stroke-width="1.5" fill="none" stroke-linecap="round" stroke-linejoin="round"/></g>
    <g clip-path="url(#lc5)">
      <text x="536" y="165"><tspan class="key">Status</tspan><tspan class="cc">: ..................... </tspan><tspan class="value" x="730">Learning Cloud &amp; System Design</tspan></text>
    </g>
    
    <!-- lc6: Toolchain -->
    <g transform="translate(506,167.5)"><path d="M12,2 A4,4 0 0,0 5.2,5.2 L1,11 v3 h3 L10.8,7.8 A4,4 0 0,0 12,2 Z" stroke="#0EA5E9" stroke-width="1.5" fill="none" stroke-linecap="round" stroke-linejoin="round"/></g>
    <g clip-path="url(#lc6)">
      <text x="536" y="185"><tspan class="key">Toolchain</tspan><tspan class="cc">: .................. </tspan><tspan class="value" x="730">VS Code, Git, Terminal, Playwright</tspan></text>
    </g>

    <!-- TECH STACK LIST ITEMS -->
    <!-- lc8: Core Languages -->
    <g transform="translate(506,226.5)"><path d="M4,3 L1,7 L4,11 M12,3 L15,7 L12,11 M9,2 L7,12" stroke="#0EA5E9" stroke-width="1.5" fill="none" stroke-linecap="round" stroke-linejoin="round"/></g>
    <g clip-path="url(#lc8)">
      <text x="536" y="239"><tspan class="key">Core Languages</tspan><tspan class="cc">: ........... </tspan><tspan class="value" x="730">C, C++, C#, Java, Python, JS, PHP</tspan></text>
    </g>
    
    <!-- lc9: Frontend -->
    <g transform="translate(506,246.5)"><path d="M1,2 h14 v9 h-14 Z M4,14 h8 M8,11 v3" stroke="#0EA5E9" stroke-width="1.5" fill="none" stroke-linecap="round" stroke-linejoin="round"/></g>
    <g clip-path="url(#lc9)">
      <text x="536" y="259"><tspan class="key">Frontend</tspan><tspan class="cc">: ................. </tspan><tspan class="value" x="730">HTML5, CSS3, SASS, Tailwind, React</tspan></text>
    </g>
    
    <!-- lc10: Backend -->
    <g transform="translate(506,266.5)"><path d="M1,3 A7,2 0 1,0 15,3 A7,2 0 1,0 1,3 M1,7 A7,2 0 0,0 15,7 M1,11 A7,2 0 0,0 15,11 M1,3 v8 M15,3 v8" stroke="#0EA5E9" stroke-width="1.5" fill="none" stroke-linecap="round" stroke-linejoin="round"/></g>
    <g clip-path="url(#lc10)">
      <text x="536" y="279"><tspan class="key">Backend</tspan><tspan class="cc">: .................. </tspan><tspan class="value" x="730">Node.js, Firebase, MySQL, Apache</tspan></text>
    </g>
    
    <!-- lc11: Design -->
    <g transform="translate(506,286.5)"><path d="M8,1 A7,7 0 1,0 15,8 A2,2 0 0,0 13,6 h-1 A2,2 0 0,1 10,4 v-1 A2,2 0 0,0 8,1 Z" stroke="#0EA5E9" stroke-width="1.5" fill="none" stroke-linecap="round" stroke-linejoin="round"/></g>
    <g clip-path="url(#lc11)">
      <text x="536" y="299"><tspan class="key">Design</tspan><tspan class="cc">: ................... </tspan><tspan class="value" x="730">Figma, Photoshop, Premiere Pro</tspan></text>
    </g>
    
    <!-- lc12: Marketing -->
    <g transform="translate(506,306.5)"><path d="M1,14 h14 M3,14 v-4 M7,14 v-8 M11,14 v-11" stroke="#0EA5E9" stroke-width="1.5" fill="none" stroke-linecap="round" stroke-linejoin="round"/></g>
    <g clip-path="url(#lc12)">
      <text x="536" y="319"><tspan class="key">Marketing</tspan><tspan class="cc">: ................ </tspan><tspan class="value" x="730">WordPress, Google Analytics, LaTeX</tspan></text>
    </g>
  </g>

  <!-- Right Panel - Bottom Box (CONTACT & LIVE STATS) -->
  <g id="right-panel-bottom">
    <rect x="486" y="372" width="680" height="174" rx="12" fill="#FAFAFA" fill-opacity="0.6" stroke="#CBD5E1" stroke-width="1.5"/>
    
    <!-- Title gap trick -->
    <rect x="506" y="363" width="85" height="15" fill="#FAFAFA"/>
    <text x="514" y="376" class="panel-title">CONTACT</text>
    
    <!-- CONTACT LIST ITEMS -->
    <!-- lc14: Email -->
    <g transform="translate(506,409.5)"><path d="M1,3 h14 v10 h-14 Z M1,3 L8,8.5 L15,3" stroke="#0EA5E9" stroke-width="1.5" fill="none" stroke-linecap="round" stroke-linejoin="round"/></g>
    <g clip-path="url(#lc14)">
      <text x="536" y="422"><tspan class="key">Email</tspan><tspan class="cc">: ................. </tspan><tspan class="value" x="645">sachinsthug@gmail.com</tspan></text>
    </g>
    
    <!-- lc15: LinkedIn -->
    <g transform="translate(506,431.5)"><path d="M2,2 h3 v12 h-3 Z M7,5 h3 v9 h-3 Z M7,5 A3,3 0 0,1 13,8 v6 h-3 v-6" stroke="#0EA5E9" stroke-width="1.5" fill="none" stroke-linecap="round" stroke-linejoin="round"/></g>
    <g clip-path="url(#lc15)">
      <text x="536" y="444"><tspan class="key">LinkedIn</tspan><tspan class="cc">: .............. </tspan><tspan class="value" x="645">sachin-ji</tspan></text>
    </g>
    
    <!-- lc16: Instagram -->
    <g transform="translate(506,453.5)"><path d="M4,1 h8 A3,3 0 0,1 15,4 v8 A3,3 0 0,1 12,15 h-8 A3,3 0 0,1 1,12 v-8 A3,3 0 0,1 4,1 Z M8,4 A4,4 0 1,0 8,12 A4,4 0 1,0 8,4 Z M12,3 h0.1" stroke="#0EA5E9" stroke-width="1.5" fill="none" stroke-linecap="round" stroke-linejoin="round"/></g>
    <g clip-path="url(#lc16)">
      <text x="536" y="466"><tspan class="key">Instagram</tspan><tspan class="cc"> : ............. </tspan><tspan class="value" x="645">sachiyes_</tspan></text>
    </g>
    
    <!-- lc17: GitHub -->
    <g transform="translate(506,475.5)"><path d="M8,0.2 A8,8 0 0,0 5.5,15.8 c0.4,0.1 0.5,-0.2 0.5,-0.4 v-1.4 c-2.2,0.5 -2.7,-1.1 -2.7,-1.1 c-0.4,-0.9 -0.9,-1.1 -0.9,-1.1 c-0.7,-0.5 0.1,-0.5 0.1,-0.5 c0.8,0.1 1.2,0.8 1.2,0.8 c0.7,1.2 1.9,0.9 2.3,0.7 c0.1,-0.5 0.3,-0.9 0.5,-1.1 c-1.8,-0.2 -3.6,-0.9 -3.6,-4 c0,-0.9 0.3,-1.6 0.8,-2.2 c-0.1,-0.2 -0.4,-1 0.1,-2.1 c0,0 0.7,-0.2 2.2,0.8 A7.5,7.5 0 0,1 10,4.6 c0.7,0 1.4,0.1 2,0.3 c1.5,-1 2.2,-0.8 2.2,-0.8 c0.4,1.1 0.2,1.9 0.1,2.1 c0.5,0.6 0.8,1.3 0.8,2.2 c0,3.1 -1.9,3.7 -3.7,3.9 c0.3,0.3 0.5,0.8 0.5,1.6 v2.4 c0,0.2 0.1,0.5 0.5,0.4 A8,8 0 0,0 8,0.2 Z" stroke="#0EA5E9" stroke-width="1.5" fill="none" stroke-linecap="round" stroke-linejoin="round"/></g>
    <g clip-path="url(#lc17)">
      <text x="536" y="488"><tspan class="key">GitHub</tspan><tspan class="cc">: ................ </tspan><tspan class="value" x="645">SachinSharma8742</tspan></text>
    </g>

    <!-- LIVE STATS SUB-BOX -->
    <rect x="836" y="392" width="315" height="135" rx="8" fill="#FAFAFA" fill-opacity="0.8" stroke="#CBD5E1" stroke-width="1.5"/>
    
    <!-- Title gap trick -->
    <rect x="850" y="383" width="95" height="15" fill="#FAFAFA"/>
    <text x="858" y="396" class="panel-title" fill="#10B981">LIVE STATS</text>
    
    <!-- STATS LIST ITEMS (Followers changed to PRs Merged, Stars changed to Projects) -->
    <!-- lc14: Repositories -->
    <g transform="translate(854,409.5)"><path d="M1,3 v10 h14 v-8 h-7 L6,3 Z" stroke="#10B981" stroke-width="1.5" fill="none" stroke-linecap="round" stroke-linejoin="round"/></g>
    <g clip-path="url(#lc14)">
      <text x="882" y="422"><tspan class="accent" fill="#10B981">Repositories</tspan><tspan class="cc"> ..... </tspan><tspan class="value" x="1100">42+</tspan></text>
    </g>
    
    <!-- lc15: PRs Merged -->
    <g transform="translate(854,431.5)"><path d="M12,5 A2,2 0 1,0 12,9 A2,2 0 1,0 12,5 M4,5 A2,2 0 1,0 4,9 A2,2 0 1,0 4,5 M4,13 A2,2 0 1,0 4,17 A2,2 0 1,0 4,13 M12,7 h-4 A2,2 0 0,0 6,9 v4 M4,9 v4" stroke="#10B981" stroke-width="1.5" fill="none" stroke-linecap="round" stroke-linejoin="round"/></g>
    <g clip-path="url(#lc15)">
      <text x="882" y="444"><tspan class="accent" fill="#10B981">PRs Merged</tspan><tspan class="cc"> ....... </tspan><tspan class="value" x="1100">280+</tspan></text>
    </g>
    
    <!-- lc16: Projects -->
    <g transform="translate(854,453.5)"><path d="M2,5 h12 v9 h-12 Z M5,5 v-2 h6 v2" stroke="#10B981" stroke-width="1.5" fill="none" stroke-linecap="round" stroke-linejoin="round"/></g>
    <g clip-path="url(#lc16)">
      <text x="882" y="466"><tspan class="accent" fill="#10B981">Projects</tspan><tspan class="cc"> ......... </tspan><tspan class="value" x="1100">18+</tspan></text>
    </g>
    
    <!-- lc17: Commits -->
    <g transform="translate(854,475.5)"><path d="M4,3 A2,2 0 1,0 4,7 A2,2 0 0,0 6,5 M4,7 v6 M4,13 A2,2 0 1,0 4,17 A2,2 0 0,0 6,15 M6,5 C9,5 11,8 11,11 A2,2 0 1,0 13,11" stroke="#10B981" stroke-width="1.5" fill="none" stroke-linecap="round" stroke-linejoin="round"/></g>
    <g clip-path="url(#lc17)">
      <text x="882" y="488"><tspan class="accent" fill="#10B981">Commits</tspan><tspan class="cc"> .......... </tspan><tspan class="value" x="1100">1.2k+</tspan></text>
    </g>
    
    <!-- lc18: Contributions -->
    <g transform="translate(854,497.5)"><path d="M1,8 h2 L5,2 L9,14 L11,8 h4" stroke="#10B981" stroke-width="1.5" fill="none" stroke-linecap="round" stroke-linejoin="round"/></g>
    <g clip-path="url(#lc18)">
      <text x="882" y="510"><tspan class="accent" fill="#10B981">Contributions</tspan><tspan class="cc"> .. </tspan><tspan class="value" x="1100">Active</tspan></text>
    </g>

    <!-- Footer Command (lc20) -->
    <g clip-path="url(#lc20)">
      <text x="506" y="534" font-family="'Fira Code', monospace" font-size="13" fill="#1E293B">&gt;  See live stats below <tspan fill="#10B981">█</tspan></text>
    </g>
  </g>
</g>

<!-- Animated Scanning Scanline Beam -->
<rect x="0" y="-70" width="1180" height="70" fill="url(#scanGrad)" opacity="0.15" style="mix-blend-mode:screen">
  <animateTransform attributeName="transform" type="translate" from="0 -70" to="0 680" dur="4.5s" repeatCount="indefinite"/>
</rect>

<!-- Glowing Outer Border -->
<rect x="3" y="3" width="1174" height="604" rx="16" fill="none" stroke="url(#borderGrad)" stroke-width="2.5" opacity="0.85">
  <animate attributeName="opacity" values="0.6;0.95;0.6" dur="3.5s" repeatCount="indefinite"/>
</rect>
</svg>